<svg id="visual" viewBox="0 0 900 600" width="900" height="600" xmlns="http://www.w3.org/2000/svg" xmlns:xlink="http://www.w3.org/1999/xlink" version="1.1"><rect x="0" y="0" width="900" height="600" fill="#165764"></rect><path d="M0 202L21.5 194.8C43 187.7 86 173.3 128.8 183.7C171.7 194 214.3 229 257.2 256.8C300 284.7 343 305.3 385.8 311.3C428.7 317.3 471.3 308.7 514.2 307.2C557 305.7 600 311.3 642.8 306.2C685.7 301 728.3 285 771.2 276.2C814 267.3 857 265.7 878.5 264.8L900 264L900 601L878.5 601C857 601 814 601 771.2 601C728.3 601 685.7 601 642.8 601C600 601 557 601 514.2 601C471.3 601 428.7 601 385.8 601C343 601 300 601 257.2 601C214.3 601 171.7 601 128.8 601C86 601 43 601 21.5 601L0 601Z" fill="#3f1d2b"></path><path d="M0 239L21.5 255C43 271 86 303 128.8 304.5C171.7 306 214.3 277 257.2 284.7C300 292.3 343 336.7 385.8 343.3C428.7 350 471.3 319 514.2 299.5C557 280 600 272 642.8 262.5C685.7 253 728.3 242 771.2 237C814 232 857 233 878.5 233.5L900 234L900 601L878.5 601C857 601 814 601 771.2 601C728.3 601 685.7 601 642.8 601C600 601 557 601 514.2 601C471.3 601 428.7 601 385.8 601C343 601 300 601 257.2 601C214.3 601 171.7 601 128.8 601C86 601 43 601 21.5 601L0 601Z" fill="#3f2a43"></path><path d="M0 370L21.5 381.2C43 392.3 86 414.7 128.8 418.5C171.7 422.3 214.3 407.7 257.2 406.7C300 405.7 343 418.3 385.8 412.2C428.7 406 471.3 381 514.2 378.3C557 375.7 600 395.3 642.8 395.5C685.7 395.7 728.3 376.3 771.2 362.7C814 349 857 341 878.5 337L900 333L900 601L878.5 601C857 601 814 601 771.2 601C728.3 601 685.7 601 642.8 601C600 601 557 601 514.2 601C471.3 601 428.7 601 385.8 601C343 601 300 601 257.2 601C214.3 601 171.7 601 128.8 601C86 601 43 601 21.5 601L0 601Z" fill="#343a57"></path><path d="M0 443L21.5 445.8C43 448.7 86 454.3 128.8 463.3C171.7 472.3 214.3 484.7 257.2 487C300 489.3 343 481.7 385.8 464.2C428.7 446.7 471.3 419.3 514.2 421.5C557 423.7 600 455.3 642.8 470.5C685.7 485.7 728.3 484.3 771.2 482.3C814 480.3 857 477.7 878.5 476.3L900 475L900 601L878.5 601C857 601 814 601 771.2 601C728.3 601 685.7 601 642.8 601C600 601 557 601 514.2 601C471.3 601 428.7 601 385.8 601C343 601 300 601 257.2 601C214.3 601 171.7 601 128.8 601C86 601 43 601 21.5 601L0 601Z" fill="#224962"></path><path d="M0 543L21.5 534.3C43 525.7 86 508.3 128.8 507C171.7 505.7 214.3 520.3 257.2 519.5C300 518.7 343 502.3 385.8 493C428.7 483.7 471.3 481.3 514.2 491.7C557 502 600 525 642.8 530.5C685.7 536 728.3 524 771.2 519.2C814 514.3 857 516.7 878.5 517.8L900 519L900 601L878.5 601C857 601 814 601 771.2 601C728.3 601 685.7 601 642.8 601C600 601 557 601 514.2 601C471.3 601 428.7 601 385.8 601C343 601 300 601 257.2 601C214.3 601 171.7 601 128.8 601C86 601 43 601 21.5 601L0 601Z" fill="#165764"></path></svg>